Coordinates
version=1
nRows=14
nColumns=24
inDegrees=yes

Units are S.I. units (second, meters, Newtons, ...)
Angles are in degrees.

endheader
time	pelvis_tilt	pelvis_list	pelvis_rotation	pelvis_tx	pelvis_ty	pelvis_tz	hip_flexion_r	hip_adduction_r	hip_rotation_r	knee_angle_r	ankle_angle_r	subtalar_angle_r	mtp_angle_r	hip_flexion_l	hip_adduction_l	hip_rotation_l	knee_angle_l	ankle_angle_l	subtalar_angle_l	mtp_angle_l	lumbar_extension	lumbar_bending	lumbar_rotation
      0.83300000	      3.14845651	      0.90201241	      0.05673969	     -0.50685144	      1.02634736	      0.27975072	      4.40261400	      4.48502583	      0.93104028	    -12.38760959	      4.94771329	    -14.00461262	      8.68612220	     10.60858140	     -1.78843376	     -4.47947572	    -64.80402518	      3.56617938	    -12.68144518	      3.28208567	     -5.49666004	     -0.35646619	      3.56680732
      0.83716667	      3.12698343	      1.01074710	     -0.18868289	     -0.50178782	      1.02693609	      0.28021456	      3.96887758	      4.37218823	      1.07603234	    -12.09418391	      5.06652489	    -13.82035862	      8.70599006	     11.12002938	     -1.68169672	     -4.63964912	    -64.42346982	      3.83700377	    -12.38021201	      3.20872671	     -5.49203597	     -0.46877931	      3.94204038
      0.84133333	      3.11924397	      1.13566511	     -0.44970721	     -0.49675087	      1.02753361	      0.28068515	      3.52633530	      4.23713933	      1.22159031	    -11.80100173	      5.10522781	    -13.63470948	      8.71861014	     11.60068914	     -1.56115801	     -4.82270656	    -63.98124681	      4.07813936	    -12.09036216	      3.17600099	     -5.50614068	     -0.62390746	      4.15912815
      0.84550000	      3.12331431	      1.24037302	     -0.69782997	     -0.49173800	      1.02807556	      0.28114084	      3.07247369	      4.12240098	      1.36893759	    -11.51563682	      5.25444156	    -13.44214899	      8.74099420	     12.06741744	     -1.46783195	     -4.98943349	    -63.51459380	      4.34180215	    -11.67801542	      3.12796564	     -5.54292393	     -0.72039267	      4.57228563
      0.84966667	      3.13903248	      1.32805640	     -0.94416221	     -0.48674054	      1.02858437	      0.28160161	      2.60013198	      4.02371810	      1.50789976	    -11.20945282	      5.35675651	    -13.25922540	      8.76681384	     12.51659714	     -1.40353373	     -5.16843194	    -63.01996279	      4.58264018	    -11.29167467	      3.07965109	     -5.59427895	     -0.83977512	      4.94139650
      0.85383333	      3.11598528	      1.43137796	     -1.19590736	     -0.48175254	      1.02900539	      0.28204881	      2.18067091	      3.90416979	      1.65234474	    -10.92225641	      5.45227695	    -13.07162904	      8.79559433	     12.99630923	     -1.32042292	     -5.34927305	    -62.47594191	      4.79589139	    -10.89791363	      3.03644431	     -5.60293583	     -0.96715450	      5.27873579
      0.85800000	      3.12620815	      1.51479459	     -1.44213485	     -0.47678747	      1.02942147	      0.28248644	      1.72197189	      3.80334560	      1.79513529	    -10.62514466	      5.54724836	    -12.90021197	      8.82413504	     13.43126020	     -1.26328028	     -5.52726883	    -61.89862789	      5.00836081	    -10.47673702	      3.00440226	     -5.65131280	     -1.06826274	      5.59282033
      0.86216667	      3.11975046	      1.58948421	     -1.68582694	     -0.47183671	      1.02975807	      0.28290685	      1.28517791	      3.70950843	      1.94180889	    -10.33402789	      5.63959678	    -12.73859541	      8.85471443	     13.87818620	     -1.21764882	     -5.70284328	    -61.29110586	      5.20834022	    -10.05342940	      2.97766357	     -5.68023200	     -1.15610235	      5.91352346
      0.86633333	      3.10233913	      1.66865127	     -1.93124752	     -0.46689913	      1.03004266	      0.28332943	      0.86653117	      3.60941775	      2.08867837	    -10.05276518	      5.74071997	    -12.58356836	      8.88281094	     14.32403266	     -1.17050548	     -5.88388765	    -60.63997493	      5.39009878	     -9.62224432	      2.96074507	     -5.69508598	     -1.25587425	      6.21255860
      0.87050000	      3.10971432	      1.73967213	     -2.17136346	     -0.46198177	      1.03031999	      0.28373372	      0.41973925	      3.51407050	      2.23484891	     -9.76571741	      5.83704953	    -12.43032263	      8.91300401	     14.73219476	     -1.13109148	     -6.05912241	    -59.95113067	      5.55857321	     -9.20296336	      2.94824148	     -5.74498945	     -1.34253724	      6.52794081
      0.87466667	      3.10054087	      1.81348772	     -2.41416735	     -0.45707615	      1.03054082	      0.28412446	      0.00037171	      3.41237080	      2.37765709	     -9.49335315	      5.90529951	    -12.29139183	      8.93355878	     15.14374909	     -1.08864453	     -6.23632990	    -59.21671480	      5.69291858	     -8.80065965	      2.94533411	     -5.77141008	     -1.43188996	      6.75192108
      0.87883333	      3.08794010	      1.84834376	     -2.63135066	     -0.45218122	      1.03067727	      0.28450163	     -0.43053508	      3.35538893	      2.53379938	     -9.19598324	      6.02202158	    -12.17389493	      8.96370189	     15.56228445	     -1.09588620	     -6.39639978	    -58.48401815	      5.86205423	     -8.37620710	      2.94345042	     -5.80608743	     -1.48162079	      7.10894787
      0.88300000	      3.08590945	      1.89529735	     -2.85680705	     -0.44730529	      1.03080779	      0.28486782	     -0.86211065	      3.28056479	      2.68834508	     -8.91432296	      6.11120263	    -12.06626234	      8.99275177	     15.94833854	     -1.08474472	     -6.55862864	    -57.69240768	      5.99183587	     -7.98806464	      2.94500549	     -5.84813620	     -1.53934586	      7.39650330
      0.88716667	      3.06494203	      1.93313505	     -3.07011964	     -0.44243755	      1.03085516	      0.28520863	     -1.27157229	      3.21423694	      2.83708054	     -8.63661412	      6.20812902	    -11.96686887	      9.01986037	     16.34719159	     -1.08462033	     -6.71397371	    -56.87572979	      6.10895751	     -7.60844108	      2.95030423	     -5.87189183	     -1.59055328	      7.66279939
